<svg width="65" height="64" viewBox="0 0 65 64" fill="none" xmlns="http://www.w3.org/2000/svg">
<rect x="0.5" width="64" height="64" rx="32" fill="#0066FF"/>
<path d="M24.6572 45V41.1939C24.7504 40.8578 25.0416 40.4118 25.5308 39.8556C26.0317 39.2879 26.6374 38.668 27.3479 37.996C28.0701 37.324 28.8213 36.6462 29.6017 35.9626C30.3822 35.279 31.1101 34.6475 31.7857 34.0682C32.6011 33.3614 33.3989 32.6257 34.1793 31.861C34.9597 31.0963 35.6062 30.291 36.1187 29.4452C36.6312 28.5994 36.8875 27.7014 36.8875 26.7513C36.8875 25.4884 36.5846 24.4978 35.9789 23.7794C35.3732 23.0495 34.4472 22.6845 33.2009 22.6845C32.1876 22.6845 31.3839 22.9046 30.7898 23.3449C30.1958 23.7736 29.7706 24.3761 29.5144 25.1524C29.2581 25.9287 29.13 26.8324 29.13 27.8636H24.5C24.5 26.0677 24.832 24.5094 25.4959 23.1885C26.1598 21.8561 27.1441 20.8249 28.4486 20.0949C29.7532 19.365 31.3547 19 33.2533 19C35.082 19 36.6079 19.3418 37.8309 20.0254C39.054 20.6974 39.9683 21.6243 40.574 22.8061C41.1913 23.9764 41.5 25.303 41.5 26.7861C41.5 27.7941 41.3078 28.7442 40.9234 29.6364C40.5507 30.5169 40.0615 31.3396 39.4558 32.1043C38.8501 32.869 38.2037 33.57 37.5164 34.2072C36.8292 34.8445 36.1711 35.4238 35.5421 35.9452C34.5171 36.7794 33.6028 37.5499 32.7991 38.2567C32.007 38.9519 31.3606 39.5602 30.8597 40.0816C30.3705 40.6029 30.0677 41.0316 29.9512 41.3676H41.4651V45H24.6572Z" fill="white"/>
</svg>
