<svg width="21" height="20" viewBox="0 0 21 20" fill="none" xmlns="http://www.w3.org/2000/svg">
<path d="M3.34806 20.0022C3.00398 19.8687 2.88747 19.6115 2.88868 19.2518C2.89657 17.2611 2.89414 15.2703 2.88929 13.2796C2.88929 13.1195 2.92206 13.0333 3.08166 12.9551C3.27524 12.8599 3.45243 12.7137 3.60657 12.5596C5.84216 10.3323 8.0729 8.10013 10.3042 5.86797C10.3589 5.81277 10.4019 5.74605 10.4383 5.69995C12.592 7.85326 14.7208 9.9817 16.8563 12.1162C16.3641 12.5044 16.227 13.1346 15.9236 13.666C15.8592 13.7788 15.7676 13.8874 15.6644 13.9656C15.4314 14.1421 15.1826 14.2974 14.9417 14.4636C13.9192 15.1697 13.9137 16.5866 14.9308 17.3005C14.9465 17.3114 14.9623 17.3242 14.9793 17.3327C15.6329 17.659 16.0492 18.1794 16.2968 18.8636C16.4843 19.3823 16.8472 19.7541 17.3836 19.9367C17.4103 19.9458 17.4285 19.9791 17.4504 20.0016H12.7625C12.7595 19.9367 12.7534 19.8724 12.7534 19.8075C12.7534 18.2971 12.7583 16.7874 12.7516 15.277C12.7449 13.7545 11.4415 12.6651 9.95713 12.9314C8.85754 13.1286 8.0644 14.1015 8.06015 15.2776C8.05408 16.788 8.05833 18.2977 8.05954 19.8081C8.05954 19.8724 8.06986 19.9373 8.07532 20.0016H3.34806V20.0022Z" fill="#fff"/>
<path d="M20.4994 10.0408C20.429 10.1324 20.3677 10.2325 20.2876 10.3137C19.8027 10.8045 19.3136 11.2909 18.8251 11.7786C18.5897 12.0133 18.4713 12.0139 18.2377 11.7804C15.7102 9.25407 13.1834 6.72773 10.6571 4.20017C10.6025 4.14557 10.5636 4.074 10.486 3.96724C10.4034 4.07703 10.3634 4.14618 10.3088 4.20077C7.80132 6.71013 5.29204 9.21768 2.78338 11.7258C2.50302 12.0061 2.40593 12.0055 2.12557 11.7258C1.63767 11.2381 1.14916 10.7505 0.661874 10.2622C0.446447 10.0462 0.44584 9.91887 0.661267 9.70354C1.31908 9.04481 1.9775 8.38668 2.63592 7.72917C2.67657 7.68853 2.72027 7.65092 2.76275 7.61149C2.89322 7.73159 3.0073 7.85654 3.14081 7.95663C4.01769 8.61293 5.25503 8.32906 5.75992 7.3537C5.95714 6.97278 6.12645 6.5779 6.32367 6.19698C6.38314 6.08234 6.47902 5.97558 6.5834 5.89794C6.86011 5.69232 7.15139 5.50732 7.43418 5.31018C8.3323 4.6836 8.49433 3.55781 7.81163 2.6977C7.79586 2.67769 7.78069 2.65706 7.7552 2.62309C7.79828 2.57639 7.83894 2.52847 7.88324 2.48358C8.6515 1.71446 9.42036 0.94594 10.1892 0.177422C10.4253 -0.0585324 10.5406 -0.059139 10.776 0.175602C13.9528 3.35037 17.129 6.52513 20.304 9.70172C20.3798 9.77814 20.4351 9.8752 20.5 9.96254V10.0408H20.4994Z" fill="#fff"/>
<path d="M20.5006 16.0158C20.3641 16.1572 20.2312 16.3021 20.0892 16.438C20.0243 16.4999 19.9448 16.5514 19.8647 16.5921C19.2693 16.8947 18.8773 17.366 18.6613 17.9963C18.5964 18.1855 18.4902 18.3602 18.4022 18.541C18.3045 18.7411 18.1406 18.8497 17.921 18.8491C17.7013 18.8491 17.5386 18.7387 17.4415 18.5379C17.2443 18.1285 17.0544 17.7154 16.8462 17.3115C16.7874 17.1968 16.6915 17.0888 16.5871 17.0124C16.2782 16.7856 15.9554 16.5775 15.6399 16.3598C15.249 16.0904 15.2509 15.6786 15.6417 15.4062C15.7376 15.3395 15.8286 15.2625 15.9323 15.2103C16.5683 14.8919 16.9779 14.3854 17.2091 13.7194C17.2686 13.5489 17.3614 13.3894 17.4428 13.2268C17.5411 13.0297 17.6982 12.9199 17.9234 12.9199C18.1485 12.9199 18.3063 13.0303 18.4028 13.2287C18.6049 13.6429 18.7984 14.0615 19.0066 14.4727C19.0563 14.5716 19.1371 14.6662 19.2263 14.7311C19.5254 14.9495 19.8446 15.1412 20.1371 15.3674C20.2797 15.4778 20.3805 15.6416 20.5 15.7811V16.0152L20.5006 16.0158Z" fill="#fff"/>
<path d="M9.20898 20.0006C9.21748 19.9175 9.23265 19.8344 9.23265 19.7513C9.23386 18.2682 9.23204 16.7852 9.23447 15.3027C9.23569 14.7156 9.55124 14.2655 10.0592 14.1114C10.7516 13.9009 11.4852 14.3498 11.5532 15.0716C11.5999 15.5666 11.5623 16.07 11.5623 16.602C11.396 16.602 11.2243 16.6008 11.0519 16.602C10.6696 16.605 10.4111 16.8397 10.4093 17.1843C10.4075 17.53 10.6666 17.7708 11.0453 17.7745C11.214 17.7763 11.3827 17.7745 11.592 17.7745V20.0006H9.20898Z" fill="#fff"/>
<path d="M7.05717 3.83129C7.04807 4.04298 6.95583 4.21161 6.7756 4.33413C6.38844 4.59738 6.00006 4.85881 5.61897 5.13055C5.53401 5.19121 5.45937 5.28219 5.41264 5.375C5.18872 5.82204 4.97086 6.27272 4.76029 6.72643C4.6456 6.9733 4.47144 7.13283 4.19472 7.13404C3.918 7.13586 3.7408 6.97633 3.62611 6.73067C3.41129 6.27211 3.19222 5.81476 2.96648 5.36105C2.92279 5.27309 2.85118 5.18696 2.77108 5.13055C2.39969 4.8673 2.02042 4.61558 1.64539 4.35718C1.21515 4.06057 1.21757 3.60383 1.65025 3.306C1.98219 3.07733 2.31109 2.84319 2.64971 2.62483C2.82569 2.5114 2.94888 2.3725 3.03505 2.18022C3.22317 1.75926 3.43132 1.3474 3.62793 0.930085C3.74323 0.686246 3.918 0.530359 4.19957 0.533998C4.47144 0.537637 4.64135 0.688066 4.75362 0.926446C4.96965 1.38501 5.1875 1.84236 5.41446 2.29546C5.46119 2.38888 5.53826 2.47804 5.62321 2.53809C5.99945 2.80619 6.38237 3.06338 6.76468 3.32299C6.94369 3.4443 7.04443 3.60807 7.05717 3.83008V3.83129Z" fill="#fff"/>
<path d="M13.8365 1.51893C13.9069 1.51468 13.9773 1.5068 14.0477 1.5068C14.7504 1.50619 15.4532 1.50498 16.1559 1.5068C16.6377 1.50801 16.8604 1.73244 16.861 2.21163C16.8616 2.98561 16.861 3.75898 16.861 4.482C15.8828 3.50301 14.8821 2.50217 13.8808 1.50073C13.8657 1.5068 13.8511 1.51286 13.8359 1.51893H13.8365Z" fill="#fff"/>
</svg>
